#!OML:ASF I:\Random Stuff\random\construction\7_22_03\Session 2\subj1.ASF
:FULLY-SPECIFIED
:DEGREES
475
root -13.6136 17.7432 -4.91237 -177.003 65.6146 174.81
lowerback 9.78542 -0.906925 5.38501
upperback -0.77551 -0.393979 1.91331
thorax -6.34858 -0.319249 -0.962801
lowerneck -21.1005 3.54101 4.67937
upperneck 38.9022 4.93525 0.967271
head 18.2228 3.37445 0.864484
rclavicle 2.22639e-014 -2.22639e-014
rhumerus -30.87 2.91588 -77.4411
rradius 48.499
rwrist -25.8421
rhand -22.4198 10.472
rfingers 7.12502
rthumb 4.00336 -19.4701
lclavicle 2.22639e-014 -2.22639e-014
lhumerus -17.7564 -15.0248 92.6321
lradius 66.4905
lwrist 34.506
lhand -30.6237 60.097
lfingers 7.12502
lthumb -3.91973 -810.041
rfemur -16.3482 10.8372 17.5637
rtibia 21.1695
rfoot -9.439 -22.2114
rtoes -4.47673
lfemur -27.2627 7.18908 -23.5746
ltibia 35.2266
lfoot -16.8511 7.34637
ltoes -19.0619
476
root -13.4951 17.7478 -4.97001 -176.506 67.1042 175.311
lowerback 9.80353 -0.84679 5.35927
upperback -0.732645 -0.319485 1.8993
thorax -6.30876 -0.281057 -0.97483
lowerneck -20.9763 4.02284 5.21443
upperneck 39.0219 5.60547 0.668197
head 18.3161 3.67246 0.777961
rclavicle -4.67144e-014 -2.8625e-014
rhumerus -30.6383 2.92596 -77.8941
rradius 48.6137
rwrist -25.6685
rhand -23.0061 10.7562
rfingers 7.12502
rthumb 3.43725 -19.1958
lclavicle -4.67144e-014 -2.8625e-014
lhumerus -16.7714 -13.7624 91.4139
lradius 67.1178
lwrist 32.9638
lhand -30.09 59.9111
lfingers 7.12502
lthumb -3.40441 -630.136
rfemur -15.8838 11.2039 17.9495
rtibia 20.5767
rfoot -8.51705 -21.3055
rtoes -9.65568
lfemur -28.0139 5.56839 -22.713
ltibia 33.3572
lfoot -16.7036 7.56324
ltoes -18.7989
477
root -13.3734 17.7461 -5.03244 -175.995 68.6009 175.803
lowerback 9.75831 -0.742876 5.33006
upperback -0.699616 -0.194781 1.85078
thorax -6.24057 -0.218866 -1.02911
lowerneck -20.9533 4.48176 5.72698
upperneck 39.2692 6.25178 0.404886
head 18.5169 3.96528 0.717628
rclavicle -3.85642e-014 1.59028e-015
rhumerus -30.5467 2.96098 -78.3329
rradius 48.7427
rwrist -25.3018
rhand -23.2568 11.3055
rfingers 7.12502
rthumb 3.19512 -18.6503
lclavicle -3.85642e-014 1.59028e-015
lhumerus -15.8577 -13.0226 90.2408
lradius 67.5899
lwrist 31.5405
lhand -29.6536 59.8887
lfingers 7.12502
lthumb -2.9829 -630.152
rfemur -15.2948 11.5294 18.263
rtibia 19.7838
rfoot -8.13231 -20.3342
rtoes -12.0897
lfemur -28.732 3.65491 -21.6304
ltibia 31.5995
lfoot -16.7791 7.85874
ltoes -19.8634
478
root -13.2531 17.7391 -5.09818 -175.099 70.0965 176.637
lowerback 9.66461 -0.63611 5.43458
upperback -0.714911 -0.0538747 1.77809
thorax -6.19585 -0.154976 -1.18558
lowerneck -20.7428 4.9482 5.95711
upperneck 39.4368 6.84945 0.597518
head 18.5852 4.26576 0.899454
rclavicle 1.31198e-014 2.46493e-014
rhumerus -30.5582 3.00089 -78.7668
rradius 48.9912
rwrist -24.8556
rhand -23.2723 11.5795
rfingers 7.12502
rthumb 3.18013 -18.3765
lclavicle 1.31198e-014 2.46493e-014
lhumerus -14.9359 -12.5075 89.0729
lradius 67.749
lwrist 30.1273
lhand -29.3483 59.8118
lfingers 7.12502
lthumb -2.68813 -630.225
rfemur -14.7092 11.8972 18.6158
rtibia 18.9023
rfoot -8.23293 -19.37
rtoes -12.4401
lfemur -29.4924 1.31768 -20.1222
ltibia 29.9933
lfoot -16.9884 8.40126
ltoes -23.2845
479
root -13.1335 17.7433 -5.16637 -173.974 71.5378 177.695
lowerback 9.54547 -0.563456 5.55592
upperback -0.733133 0.0418064 1.70521
thorax -6.14189 -0.113514 -1.34458
lowerneck -20.6121 5.37796 6.30292
upperneck 39.6243 7.43483 0.559303
head 18.7088 4.54201 0.95575
rclavicle 1.92821e-014 2.94201e-014
rhumerus -30.6342 3.09389 -79.1998
rradius 49.3378
rwrist -24.4923
rhand -23.224 11.486
rfingers 7.12502
rthumb 3.22674 -18.4694
lclavicle 1.92821e-014 2.94201e-014
lhumerus -14.0144 -12.1136 87.8499
lradius 67.6869
lwrist 28.6463
lhand -28.6842 59.4412
lfingers 7.12502
lthumb -2.04668 -630.589
rfemur -14.1128 12.0186 19.0206
rtibia 17.9286
rfoot -8.09629 -18.1954
rtoes -13.828
lfemur -30.2146 -1.49571 -18.2561
ltibia 28.5918
lfoot -17.1821 9.11398
ltoes -26.9007
480
root -13.0122 17.7464 -5.23607 -172.743 72.9428 178.949
lowerback 9.43584 -0.532632 5.58374
upperback -0.682549 0.0725318 1.67536
thorax -6.02396 -0.0967738 -1.3967
lowerneck -20.5713 5.80937 6.7034
upperneck 39.802 8.08863 0.286896
head 18.8782 4.81343 0.912506
rclavicle 5.58585e-014 3.81667e-014
rhumerus -30.7081 3.43969 -79.6551
rradius 49.6338
rwrist -24.3035
rhand -23.1235 11.3843
rfingers 7.12502
rthumb 3.32386 -18.5695
lclavicle 5.58585e-014 3.81667e-014
lhumerus -13.094 -11.7445 86.6118
lradius 67.4648
lwrist 27.4429
lhand -27.8997 58.6204
lfingers 7.12502
lthumb -1.28904 -631.404
rfemur -13.3953 11.9007 19.4708
rtibia 16.9491
rfoot -7.94191 -16.8073
rtoes -15.4788
lfemur -30.806 -4.53806 -16.1721
ltibia 27.4096
lfoot -17.1723 10.2168
ltoes -29.992
481
root -12.8885 17.7382 -5.30738 -171.349 74.3264 180.472
lowerback 9.28325 -0.498693 5.52557
upperback -0.536179 0.0934868 1.67904
thorax -5.78087 -0.0764583 -1.36472
lowerneck -20.4389 6.23514 7.22246
upperneck 39.8169 8.791 -0.263434
head 18.9661 5.07839 0.718867
rclavicle -6.95746e-015 2.78299e-014
rhumerus -30.6527 3.92224 -80.0803
rradius 49.6906
rwrist -24.2566
rhand -22.9753 11.6816
rfingers 7.12502
rthumb 3.46693 -18.2699
lclavicle -6.95746e-015 2.78299e-014
lhumerus -12.0897 -11.4919 85.4667
lradius 67.0354
lwrist 26.876
lhand -27.7389 57.995
lfingers 7.12502
lthumb -1.13375 -632.028
rfemur -12.5956 12.0515 19.8763
rtibia 16.1506
rfoot -8.13709 -15.6349
rtoes -15.2885
lfemur -31.2256 -7.39798 -14.0374
ltibia 26.4036
lfoot -16.977 11.0081
ltoes -29.7721
482
root -12.7641 17.7294 -5.38116 -169.862 75.6651 182.064
lowerback 9.08843 -0.438315 5.41631
upperback -0.421454 0.13883 1.64301
thorax -5.546 -0.0448449 -1.34868
lowerneck -20.3144 6.56363 7.52679
upperneck 39.832 9.2718 -0.452475
head 19.0084 5.27832 0.68237
rclavicle -7.35503e-015 -2.14687e-014
rhumerus -30.6349 4.27733 -80.458
rradius 49.578
rwrist -24.0689
rhand -23.0097 12.0905
rfingers 7.12502
rthumb 3.43377 -17.8616
lclavicle -7.35503e-015 -2.14687e-014
lhumerus -11.103 -11.4403 84.4151
lradius 66.3206
lwrist 26.6667
lhand -27.9394 57.76
lfingers 7.12502
lthumb -1.3274 -632.264
rfemur -11.9459 12.2857 20.1755
rtibia 15.5766
rfoot -8.53639 -14.5971
rtoes -14.2503
lfemur -31.5266 -9.94883 -12.0797
ltibia 25.5849
lfoot -16.8687 11.4382
ltoes -25.8187
483
root -12.6406 17.7174 -5.45877 -168.346 76.946 183.682
lowerback 8.94782 -0.392308 5.30253
upperback -0.375162 0.167181 1.54897
thorax -5.41521 -0.0267369 -1.38752
lowerneck -20.0139 6.93456 7.86533
upperneck 39.7977 9.8442 -0.676615
head 18.9887 5.52002 0.635277
rclavicle -1.37161e-014 9.54166e-015
rhumerus -30.7313 4.61117 -80.8255
rradius 49.3742
rwrist -23.8217
rhand -22.9723 12.3216
rfingers 7.12502
rthumb 3.46987 -17.6299
lclavicle -1.37161e-014 9.54166e-015
lhumerus -10.2382 -11.4741 83.3889
lradius 65.2816
lwrist 26.3666
lhand -27.9724 57.3342
lfingers 7.12502
lthumb -1.35928 -632.69
rfemur -11.4414 11.8632 20.4675
rtibia 15.225
rfoot -8.91807 -13.1943
rtoes -16.3559
lfemur -31.6549 -11.8747 -10.5375
ltibia 24.9531
lfoot -17.1713 13.3251
ltoes -26.7491
484
root -12.5168 17.6972 -5.53979 -166.604 78.1139 185.614
lowerback 8.86811 -0.370658 5.21106
upperback -0.309199 0.169662 1.44651
thorax -5.29993 -0.0219452 -1.44398
lowerneck -19.7345 7.31307 8.12887
upperneck 39.8263 10.3905 -0.713296
head 18.9923 5.76844 0.686905
rclavicle 7.65321e-015 1.43125e-014
rhumerus -30.8555 4.85836 -81.1316
rradius 49.1174
rwrist -23.5256
rhand -22.5969 12.0308
rfingers 7.12502
rthumb 3.83232 -17.9145
lclavicle 7.65321e-015 1.43125e-014
lhumerus -9.42757 -11.5675 82.4143
lradius 63.9642
lwrist 25.9033
lhand -27.8975 56.8165
lfingers 7.12502
lthumb -1.28695 -633.208
rfemur -10.9467 11.1744 20.7834
rtibia 15.1906
rfoot -9.75458 -11.8421
rtoes -15.9534
lfemur -31.4309 -12.4812 -9.66474
ltibia 24.423
lfoot -17.3173 14.5238
ltoes -27.3534
485
root -12.391 17.6734 -5.62514 -164.275 79.1591 188.218
lowerback 8.79369 -0.367203 5.16604
upperback -0.212245 0.1555 1.37611
thorax -5.15644 -0.0244346 -1.4908
lowerneck -19.4893 7.65395 8.40143
upperneck 39.8568 10.8887 -0.788562
head 19.0104 5.99319 0.710059
rclavicle 1.51076e-014 -1.23246e-014
rhumerus -30.9872 4.98644 -81.3702
rradius 48.8073
rwrist -23.1088
rhand -22.356 11.7295
rfingers 7.12502
rthumb 4.06501 -18.2114
lclavicle 1.51076e-014 -1.23246e-014
lhumerus -8.67354 -11.5911 81.6211
lradius 62.38
lwrist 25.067
lhand -27.7554 56.538
lfingers 7.12502
lthumb -1.14963 -633.485
rfemur -10.4496 10.738 21.1094
rtibia 15.4007
rfoot -10.2362 -10.6311
rtoes -18.8531
lfemur -30.8517 -12.144 -9.2794
ltibia 23.993
lfoot -17.3848 15.2911
ltoes -27.7207
486
root -12.261 17.6493 -5.71634 -161.299 80.0868 191.525
lowerback 8.70072 -0.397082 5.18234
upperback -0.117031 0.103615 1.3181
thorax -5.00708 -0.0465639 -1.55414
lowerneck -19.1959 8.00904 8.71596
upperneck 39.8401 11.4359 -0.958539
head 19.0069 6.2308 0.689127
rclavicle 2.89232e-014 -1.82882e-014
rhumerus -31.1205 5.18087 -81.6012
rradius 48.3742
rwrist -22.7467
rhand -22.3409 12.1822
rfingers 7.12502
rthumb 4.07961 -17.7585
lclavicle 2.89232e-014 -1.82882e-014
lhumerus -8.05224 -11.5364 80.9897
lradius 60.6231
lwrist 23.6843
lhand -27.4844 56.5569
lfingers 7.12502
lthumb -0.887973 -633.465
rfemur -9.88678 10.4567 21.4604
rtibia 15.6755
rfoot -11.2017 -9.69266
rtoes -18.787
lfemur -30.0391 -11.3474 -9.18229
ltibia 23.7
lfoot -17.3819 15.8518
ltoes -27.7276
487
root -12.1242 17.6193 -5.811 -158.222 80.8807 195.026
lowerback 8.63215 -0.444287 5.15714
upperback -0.023984 0.0250402 1.24054
thorax -4.87568 -0.0816125 -1.61129
lowerneck -18.8904 8.35144 9.09395
upperneck 39.8491 11.948 -1.12287
head 19.024 6.46709 0.654412
rclavicle 6.95746e-015 -1.03368e-014
rhumerus -31.2654 5.29494 -81.7817
rradius 47.8039
rwrist -22.4539
rhand -22.2845 12.5278
rfingers 7.12502
rthumb 4.13408 -17.4119
lclavicle 6.95746e-015 -1.03368e-014
lhumerus -7.70695 -11.6047 80.4783
lradius 58.9828
lwrist 22.0869
lhand -27.2434 56.9746
lfingers 7.12502
lthumb -0.655187 -633.047
rfemur -9.05057 10.5111 21.7456
rtibia 15.8856
rfoot -12.0941 -9.09019
rtoes -17.905
lfemur -29.0102 -10.1974 -9.37963
ltibia 23.529
lfoot -16.8672 15.7826
ltoes -28.469
488
root -11.9798 17.5828 -5.91176 -155.309 81.5587 198.433
lowerback 8.5452 -0.483034 5.0543
upperback 0.0834463 -0.0522481 1.15147
thorax -4.71878 -0.113664 -1.63733
lowerneck -18.5906 8.68086 9.5246
upperneck 39.8935 12.4285 -1.27721
head 19.071 6.70186 0.612168
rclavicle 2.37051e-014 7.95139e-016
rhumerus -31.4643 5.20915 -81.8416
rradius 47.1889
rwrist -22.2557
rhand -22.2979 12.2954
rfingers 7.12502
rthumb 4.12113 -17.6444
lclavicle 2.37051e-014 7.95139e-016
lhumerus -7.67614 -11.64 80.1203
lradius 57.5479
lwrist 20.1392
lhand -26.8141 57.3323
lfingers 7.12502
lthumb -0.240575 -632.688
rfemur -8.03231 10.6653 21.9458
rtibia 15.9217
rfoot -12.7273 -8.74398
rtoes -18.7468
lfemur -27.8373 -9.43588 -9.61385
ltibia 23.4701
lfoot -16.0085 15.4913
ltoes -30.7118
489
root -11.8278 17.5484 -6.0243 -152.022 82.1636 202.175
lowerback 8.33488 -0.526783 4.98525
upperback 0.179887 -0.138504 1.0875
thorax -4.50491 -0.149664 -1.65561
lowerneck -18.1967 9.07619 9.98193
upperneck 39.9303 13.0228 -1.42588
head 19.1049 6.98913 0.590237
rclavicle -1.41137e-014 6.55989e-015
rhumerus -31.7247 5.08943 -81.756
rradius 46.6131
rwrist -22.2441
rhand -22.1314 12.1033
rfingers 7.12502
rthumb 4.2819 -17.8334
lclavicle -1.41137e-014 6.55989e-015
lhumerus -7.86782 -11.2151 79.9345
lradius 56.2136
lwrist 17.3174
lhand -25.409 57.0363
lfingers 7.12502
lthumb 1.11654 -632.987
rfemur -6.98121 10.7713 22.1057
rtibia 15.6928
rfoot -13.0058 -8.55573
rtoes -21.8228
lfemur -26.7419 -9.3837 -9.68863
ltibia 23.5378
lfoot -15.059 15.4926
ltoes -34.4283
